<svg id="Calque_1" data-name="Calque 1" xmlns="http://www.w3.org/2000/svg" viewBox="0 0 1366.59 768.55"><defs><style>.cls-1{fill:none;}.cls-2{fill:#2b3830;stroke:#000;stroke-miterlimit:10;stroke-width:0.5px;}.cls-3{fill:#98b9d4;}.cls-4{fill:#79a3ba;}</style></defs><rect class="cls-1" x="0.07" y="0.5" width="1366" height="768"/><path class="cls-2" d="M.5,145.18" transform="translate(0.07 0.5)"/><rect class="cls-1" x="0.57" width="1366" height="768"/><path class="cls-3" d="M233,578.5c26.38-7.34,30.63-13,45-11,17.45,2.39,19.41,11.53,36,12,20.3.58,24.08-12.91,42-10,13.68,2.22,17.9,11.12,30,9,8.3-1.45,8.5-6,17-9,12.65-4.43,18.46,3.48,43,8,13.8,2.54,56,3.89,42,3-27.34-.55,55.41,4.37,82-2,15.54-3.72,19.39-7.19,32-7,18.26.28,20.14,7.71,38,9,22.68,1.63,25.23-10,48-7,13.17,1.71,31,8,31,8s22.8-11.34,46-11c16,.23,16.75,5.82,41,8,8.32.75,9.71.22,26.59.37,37.36.32,35.47,2.94,48.41,1.63,28.41-2.89,29.31-14.68,52-14,18.46.55,18.14,8.37,39,10,25.69,2,29.06-9.61,51-6,19.76,3.25,22.4,13.57,39,12,12.64-1.2,15.28-7.58,29-9,14.47-1.5,25.43,4.17,32,7,31.89,13.72,70.88,8.08,106,3,27.6-4,46.11-10.86,70-3,5.07,1.67,8.51,3.38,16,5,24.93,5.38,50,0,50,0s.94,11.26,1,12c1.09,13.15.16,40.39,0,42C1361.59,684,1.66,690.59,0,640.5H0c-.14-4.64,0-8.08,0-8.8.21-7,0-53.7,0-53.7a1.84,1.84,0,0,0,0,.5c.77,4.27,140.06,11.85,172,9.5C190.62,586.63,208.47,585.32,233,578.5Z" transform="translate(0.07 0.5)"/><path class="cls-4" d="M269,619c16.23-.1,18.61-4.58,35-3,17.61,1.7,23.47,7.7,39,6,10.79-1.18,10-4.3,22-7,23.11-5.19,33.24,4.78,59,3,13.43-.93,16.14-4,30-7,35.74-7.69,46.18,6.72,88,8,46.6,1.43,49.28-16,89-9,16.29,2.86,26.18,7.6,47,7,20.43-.59,22.09-5.48,42-5,23.93.57,26.75,7.75,46,5,13-1.85,16.06-5.74,30-6,10-.19,13.43,1.73,27,4,10,1.67,22,2.11,46,3,15.35.57,15.92.28,41,1,30.79.88,27.83,1.26,31,1,30-2.44,39.29-15,58-9,5.73,1.85,7.91,4,15,5,11.34,1.57,17.41-2.37,27-4,16.92-2.88,19,5.8,38,6,23.12.25,25.29-12.52,44.5-10.5,16.49,1.74,16.9,11.36,36.5,14.5,13.61,2.18,14-2.36,36-3,26.62-.78,31.24,5.72,48,1,14.63-4.12,13-9.59,25-12,18.39-3.68,23.1,8.94,53,14,20.26,3.43,43.81,2,44,2h0l.5.5s-.41-.5-.5-.5c-1.53,0,0,143,0,143h0s-293.55.79-531,1c-208.85.19-314.17-.12-835-1H0q0-81,0-162H0l.5.5S0,605.12,0,605c.09-1.4,73.38,2.34,76.5,2.5,18.7,1,28.05,1.43,30.5,1.5,71.88,2,80.31-11.53,115-2C241,612.22,248.77,619.12,269,619Z" transform="translate(0.07 0.5)"/></svg>