<svg id="Calque_1" data-name="Calque 1" xmlns="http://www.w3.org/2000/svg" viewBox="0 0 862.99 393"><defs><style>.cls-1{fill:#093a30;}.cls-2{fill:none;}</style></defs><path class="cls-1" d="M164,57" transform="translate(-215 -71)"/><path class="cls-2" d="M434.59,391.29l-3.35.09c-9.85.24-12.13.36-12.13.65s.65,5.15,1.38,11.11,1.35,10.9,1.27,11.07A51.44,51.44,0,0,1,414,416c-.24,0-.73-4.13-1.23-10L412,396l-2.45.08c-1.35,0-4.78.21-7.64.33-5,.25-5.23.29-5.23,1.14,0,1.11,6.86,49.26,7.11,49.92.12.32,2,.08,6-.86,3.15-.73,5.84-1.43,6-1.55s-.49-10.95-.94-14.38l-.25-1.67,4.33-.94a24.26,24.26,0,0,1,4.54-.78c.12.12.85,5.23,1.63,11.36s1.47,11.19,1.55,11.23,11.81-2.62,12-2.78-3.43-51.42-3.8-54.12Z" transform="translate(-215 -71)"/><path class="cls-2" d="M469.8,392.56c-5,.86-19.53,3.76-19.69,4-.45.45-11.19,49-10.95,49.3s4.54.09,9.8-.08l9.56-.33.78-10.29.82-10.33,1.22-.17c.7-.12,2.25-.28,3.43-.36,1.92-.17,2.25-.09,2.58.69.16.45,1.83,5.88,3.67,12s3.56,11.15,3.8,11.15c.86,0,14.95-3.88,14.95-4.13s-16.54-43.5-18.83-49.3C470.45,393.5,470,392.52,469.8,392.56Zm-7.4,26.1c-3.84,0-3.51.82-2.77-7.19l.44-5.39,1.27-.61a7.69,7.69,0,0,1,1.51-.66c.25,0,2.82,12,2.82,13.12C465.67,418.58,465.22,418.66,462.4,418.66Z" transform="translate(-215 -71)"/><path class="cls-2" d="M523.8,428.87c-.41,0-4.7.53-9.52,1.19s-8.91,1.1-9,1-.37-6.46-.53-14.13-.37-16.71-.53-20.06c-.21-5.15-.33-6-.9-6-.37,0-4,.24-8,.45s-7.4.4-7.44.44,4.74,51.92,4.9,52,17.12-.49,26-.94l5.15-.24.28-2.74c.13-1.47.25-4.57.25-6.9C524.49,429.32,524.41,428.87,523.8,428.87Z" transform="translate(-215 -71)"/><path class="cls-2" d="M548,409.31l-9.15,1.43-.29-2.62a9.33,9.33,0,0,1-.08-2.78c.08-.08,4.62-.73,10.09-1.38s10-1.23,10-1.31.61-3.15,1.22-6.86,1.19-7.07,1.27-7.48c.2-.61,0-.69-1.76-.65-3.67.12-34.43,3.06-34.72,3.35s3.68,51.22,4.09,51.59c.2.24,13.23-2.41,13.52-2.74.08-.08-.37-4.13-1-8.95s-1.15-9.27-1.19-9.84V420l8-.74c4.82-.49,8.21-1,8.53-1.26.49-.53,1.27-9.44.86-9.89C557.29,408,553,408.57,548,409.31Z" transform="translate(-215 -71)"/><path class="cls-2" d="M558.27,358.86c13.48,4.54,28.35,2,40.4-6.9,6.49-4.82,14.7-14.26,19.6-22.59q14.28-24.25,17-56.73c.58-7.15.25-26.43-.61-32.68-4.66-34.76-19.16-62.29-39.54-75.08a48,48,0,0,0-13.19-5.63,57,57,0,0,0-16.46-.74c-9.4,1.43-18.83,6.58-26.92,14.62-7.15,7.11-12,14.14-17.32,25.16-8.58,17.73-12.38,34.56-12.91,57-.32,14.74.66,26.18,3.35,38.19C518.93,326.14,537.23,351.8,558.27,358.86Zm-7.11-115.39c2.7-21.36,9.44-36.8,17.48-40a11.81,11.81,0,0,1,3.19-.41c2.86,0,5.35,1.15,7.92,3.76,9.52,9.76,15.36,37.29,13.36,63.19-1.84,24.14-9.23,42.6-18.34,45.67-3.35,1.14-7.47,0-10.46-3-6.2-6.2-10.94-19.64-13.15-37A184.08,184.08,0,0,1,551.16,243.47Z" transform="translate(-215 -71)"/><path class="cls-2" d="M386.31,414.82l10.25-7.76-4.7-5.11c-2.57-2.81-4.82-5.18-5-5.26s-4.82,3.83-10.29,8.7-10.09,8.78-10.22,8.78a70.25,70.25,0,0,1-.45-8.38c-.08-4.57-.24-8.41-.36-8.49s-14.38.53-14.63.73,3.8,46.65,4.33,50.37l.25,1.79,5.76-.28c3.14-.17,5.76-.33,5.8-.37s-.12-4.45-.25-9.84a90,90,0,0,1,0-10.09c.13-.21,3.07,3.35,6.5,7.84s6.41,8.17,6.66,8.17,10.86-5.56,11.47-6.13c.17-.16-3.47-3.84-8.13-8.17-6.78-6.37-8.33-8-7.84-8.33Z" transform="translate(-215 -71)"/><path class="cls-2" d="M588.7,387.58c-.25-.25-19.69,3.18-20,3.51-.17.16-11.11,48.81-11.11,49.34,0,.25,19.11,0,19.48-.28,0,0,.41-4.62.86-10.22s.94-10.25,1.06-10.37a36.13,36.13,0,0,1,6.7-.65c.08,0,1.75,5.47,3.71,12.09s3.72,12,3.88,11.92c1.88-.2,15-4.12,15-4.45s-4.33-11.76-9.64-25.57S588.82,387.7,588.7,387.58ZM581,413.35h-3.51l.24-2c.13-1.06.33-3.23.45-4.78.45-5.31.62-5.88,1.76-6.53,1.47-.78,1.67-.78,1.92.28.41,1.8,2.65,12.62,2.65,12.79A15.06,15.06,0,0,1,581,413.35Z" transform="translate(-215 -71)"/><path class="cls-2" d="M656.06,340c4.86,8.05,12.21,15.93,18.21,19.49,13.85,8.21,33.05,9,47.1,2,8-4,14.62-11.28,19.81-21.61,4.61-9.23,7.07-18.14,9.39-33.74,2.29-15.24,2.45-18.87,2.45-51.06,0-17.24-.24-34.23-.53-40.23-.24-5.72-.61-16.55-.73-24-.29-13.32-.33-13.6-1.15-13.77-4-1-38.55-8.37-39-8.37s-.53,1-.29,6.62c.16,3.67.45,8.86.65,11.56.49,6.21,1.47,25.4,2.09,41.25.53,13.11.28,37.87-.45,47-1.47,18.87-5.11,32.22-10.13,37.49a11,11,0,0,1-7.52,3.15c-8,0-13.44-8.25-17.07-26.14-2.25-11.2-3.06-20.39-3.68-40.65-.53-16.95.12-44.89,1.64-71.89.2-3.83.49-10.29.65-14.41.16-4.33.12-7.44-.08-7.4s-9.31,2.66-20.22,5.8l-19.85,5.8-.29,9.6c-.94,35-.73,71.4.61,88.23C640.37,299.35,646.33,323.94,656.06,340Z" transform="translate(-215 -71)"/><path class="cls-2" d="M391.86,360.82c0-.45-11.44-46-25.32-101.34-23.16-92.35-25.33-100.6-26.06-100.56S282.15,169.5,282,169.66s-38.77,189.61-38.56,189.81c.36.41,56.49,2.5,56.81,2.13.17-.17,1.88-17.61,3.84-38.72s3.64-39.13,3.76-40.07l.25-1.68,10-.49c5.52-.24,10.09-.41,10.13-.37s4.09,21.08,8.95,46.69,9,46.93,9.15,47.42c.28.82,1.06.62,22.95-6C389,362.46,391.94,361.48,391.86,360.82Zm-86.43-102.6c-.2-.33,4.78-48.57,5-48.86l4.08-2.45c4.08-2.37,4.49-2.53,4.49-1.83,0,.2,1.47,12.17,3.27,26.5s3.27,26.31,3.27,26.51C325.57,258.62,305.72,258.75,305.43,258.22Z" transform="translate(-215 -71)"/><path class="cls-2" d="M409.67,265.69,410,315.4l.28,49.75h.86c.49,0,10-.45,21.28-1s20.59-1,20.79-1,.21-21,0-48.32l-.28-48.28,27-56c14.87-30.8,27.12-56.21,27.24-56.49s-.2-.49-1.14-.45c-4.29.16-43.71,4.37-44,4.66S455.42,173,447.7,190.53,433.36,223.05,433,223.82l-.69,1.43-.82-1.83c-1.59-3.64-29.57-64.75-29.69-64.91s-45.18,9-45.47,9.15c0,0,11.93,22.14,26.64,49.06Z" transform="translate(-215 -71)"/><path class="cls-2" d="M722.35,406.28c-8.13-21.24-9.44-24.38-10.17-24.34-.45,0-4.94.82-10,1.76-7.8,1.43-9.19,1.83-9.47,2.49s-11,48.07-11,48.65c0,.08,4.33.16,9.6.16,7.31,0,9.68-.12,9.8-.53.12-.25.57-5,1-10.46s.86-10.05.94-10.09a21.7,21.7,0,0,1,3.51-.24l3.39-.13,3.6,11.85c3.43,11.36,3.63,11.85,4.53,11.72.53,0,4.05-.94,7.8-2l6.82-1.88-.53-1.26C732,431.28,727.5,419.72,722.35,406.28Zm-20.59,1.52c0-.82,1.23-12.59,1.35-12.63s.65-.36,1.31-.73a4.91,4.91,0,0,1,1.35-.53c.16.2,2.94,13.44,2.85,13.52C708.26,407.75,701.76,408.08,701.76,407.8Z" transform="translate(-215 -71)"/><path class="cls-2" d="M642.45,423.56c-.28,0-4.57.53-9.51,1.19s-9,1.1-9.11,1.06-.33-8.74-.53-19.24-.53-19.57-.62-20.1-.4-.85-.69-.81-3.8.2-7.84.41-7.4.44-7.52.53c-.24.28,4.49,51.42,4.82,51.79s30.51-.78,31.13-1.19c.2-.12.36-3.22.36-6.94C642.94,425.16,642.82,423.56,642.45,423.56Z" transform="translate(-215 -71)"/><path class="cls-2" d="M768.3,401.79l-1.76-25.2-4.53.08c-2.45,0-6,.16-7.88.2l-3.39.17.2,1.1c.49,2.45,2.7,21,2.53,21.24a41.5,41.5,0,0,1-4.08,1.1l-3.88.9-.25-1.67c-.12-.9-.49-5.43-.85-10s-.7-8.41-.74-8.46-15.07.7-15.28.86,1.47,11.6,3.44,25.53c3.14,22,3.71,25.37,4.28,25.37.41,0,3.11-.58,6-1.27l5.35-1.27,0-2.08c0-1.18-.25-4.78-.53-8s-.49-6-.49-6,2-.53,4.41-1.1l4.41-1,.21,1.26c.12.7.77,5.76,1.47,11.28s1.34,10.09,1.43,10.17a46.47,46.47,0,0,0,6.12-1.19l6-1.39-.25-2.65C770.14,428.22,769.28,415.68,768.3,401.79Z" transform="translate(-215 -71)"/><path class="cls-2" d="M841.54,275.54c-5.19-2.62-12.5-4.38-20.42-5l-3.8-.28,3.06-1.68a67.62,67.62,0,0,0,16.18-12.5c9.88-9.84,15.84-20,19.4-32.92,2.33-8.5,2.86-12.7,2.82-23,0-8.86,0-9.31-1.15-12.86-2.65-8.66-7-14-15.07-18.71-8.41-4.9-17.85-7.15-33.58-8.05-3.79-.2-7.39-.37-8-.32s-2.29.12-3.88.2c-5.19.2-17.48,1.39-23.28,2.21-5,.69-19.37,3.47-19.65,3.75,0,0,2.25,44.57,5.06,99l5.19,98.89,6.21.25a157,157,0,0,0,32.8-2.62c12.83-2.57,25.94-7.88,33.66-13.56,9.55-7.06,16.66-16.38,19.85-26,2.16-6.49,3.55-17.19,2.82-21.77A34.09,34.09,0,0,0,841.54,275.54ZM794.07,204.1c0-1.35.45-1.35,6.34-.5,11.07,1.64,18,5.72,19.64,11.61s-1.59,13.19-10.25,23c-3.35,3.8-13,12.79-13.15,12.26C796.53,250.13,794.07,205.69,794.07,204.1Zm21.41,116.24c-1.92,2.9-13,14.5-13.48,14.05-.16-.16-2.12-30.75-2.21-34,0-.53,2.45-.37,6.74.45C819.07,303.23,822.22,310.09,815.48,320.34Z" transform="translate(-215 -71)"/><path class="cls-2" d="M662.1,424.22c-.57.16-.69-1-.94-10.13-.12-5.68-.37-14.79-.53-20.26l-.24-9.89-1.07,0c-.57,0-4.16.25-8,.41s-7,.41-7.07.49,4.62,51.75,4.86,52,11.48-.21,25.29-.86l6-.25.29-6.74c.12-3.71.16-6.86.08-7S663.49,423.85,662.1,424.22Z" transform="translate(-215 -71)"/><path class="cls-1" d="M564.31,312.66c3,2.95,7.11,4.13,10.46,3,9.11-3.07,16.5-21.53,18.34-45.67,2-25.9-3.84-53.43-13.36-63.19-2.57-2.61-5.06-3.8-7.92-3.76a11.81,11.81,0,0,0-3.19.41c-8,3.23-14.78,18.67-17.48,40a184.08,184.08,0,0,0,0,32.19C553.37,293,558.11,306.46,564.31,312.66Z" transform="translate(-215 -71)"/><path class="cls-1" d="M319,205.08c0-.7-.41-.54-4.49,1.83l-4.08,2.45c-.25.29-5.23,48.53-5,48.86.29.53,20.14.4,20.14-.13,0-.2-1.47-12.17-3.27-26.51S319,205.28,319,205.08Z" transform="translate(-215 -71)"/><path class="cls-1" d="M809.8,238.24c8.66-9.84,12-17.23,10.25-23s-8.57-10-19.64-11.61c-5.89-.85-6.34-.85-6.34.5,0,1.59,2.46,46,2.58,46.4C796.81,251,806.45,242,809.8,238.24Z" transform="translate(-215 -71)"/><path class="cls-1" d="M806.53,300.82c-4.29-.82-6.74-1-6.74-.45.09,3.27,2.05,33.86,2.21,34,.45.45,11.56-11.15,13.48-14.05C822.22,310.09,819.07,303.23,806.53,300.82Z" transform="translate(-215 -71)"/><path class="cls-1" d="M704.42,394.44c-.66.37-1.27.69-1.31.73s-1.35,11.81-1.35,12.63c0,.28,6.5-.05,6.86-.37.09-.08-2.69-13.32-2.85-13.52A4.91,4.91,0,0,0,704.42,394.44Z" transform="translate(-215 -71)"/><path class="cls-1" d="M580,400.08c-1.14.65-1.31,1.22-1.76,6.53-.12,1.55-.32,3.72-.45,4.78l-.24,2H581a15.06,15.06,0,0,0,3.51-.2c0-.17-2.24-11-2.65-12.79C581.63,399.3,581.43,399.3,580,400.08Z" transform="translate(-215 -71)"/><path class="cls-1" d="M461.34,405.47l-1.27.61-.44,5.39c-.74,8-1.07,7.19,2.77,7.19,2.82,0,3.27-.08,3.27-.73,0-1.15-2.57-13.16-2.82-13.12A7.69,7.69,0,0,0,461.34,405.47Z" transform="translate(-215 -71)"/><path class="cls-2" d="M884.35,103.49a2.62,2.62,0,0,0-3.52-1c-1.43.61-1.22,1.8.57,3.14.82.62,3.76,3.35,6.54,6,1.54,1.51,2.65,2.53,3.42,3.41V111C888,107.62,884.52,104,884.35,103.49Z" transform="translate(-215 -71)"/><path class="cls-2" d="M558.27,358.86c13.48,4.54,28.35,2,40.4-6.9,6.49-4.82,14.7-14.26,19.6-22.59q14.28-24.25,17-56.73c.58-7.15.25-26.43-.61-32.68-4.66-34.76-19.16-62.29-39.54-75.08a48,48,0,0,0-13.19-5.63,57,57,0,0,0-16.46-.74c-9.4,1.43-18.83,6.58-26.92,14.62-7.15,7.11-12,14.14-17.32,25.16-8.58,17.73-12.38,34.56-12.91,57-.32,14.74.66,26.18,3.35,38.19C518.93,326.14,537.23,351.8,558.27,358.86Z" transform="translate(-215 -71)"/><path class="cls-2" d="M656.06,340c4.86,8.05,12.21,15.93,18.21,19.49,13.85,8.21,33.05,9,47.1,2,8-4,14.62-11.28,19.81-21.61,4.61-9.23,7.07-18.14,9.39-33.74,2.29-15.24,2.45-18.87,2.45-51.06,0-17.24-.24-34.23-.53-40.23-.24-5.72-.61-16.55-.73-24-.29-13.32-.33-13.6-1.15-13.77-4-1-38.55-8.37-39-8.37s-.53,1-.29,6.62c.16,3.67.45,8.86.65,11.56.49,6.21,1.47,25.4,2.09,41.25.53,13.11.28,37.87-.45,47-1.47,18.87-5.11,32.22-10.13,37.49a11,11,0,0,1-7.52,3.15c-8,0-13.44-8.25-17.07-26.14-2.25-11.2-3.06-20.39-3.68-40.65-.53-16.95.12-44.89,1.64-71.89.2-3.83.49-10.29.65-14.41.16-4.33.12-7.44-.08-7.4s-9.31,2.66-20.22,5.8l-19.85,5.8-.29,9.6c-.94,35-.73,71.4.61,88.23C640.37,299.35,646.33,323.94,656.06,340Z" transform="translate(-215 -71)"/><path class="cls-2" d="M409.67,265.69,410,315.4l.28,49.75h.86c.49,0,10-.45,21.28-1s20.59-1,20.79-1,.21-21,0-48.32l-.28-48.28,27-56c14.87-30.8,27.12-56.21,27.24-56.49s-.2-.49-1.14-.45c-4.29.16-43.71,4.37-44,4.66S455.42,173,447.7,190.53,433.36,223.05,433,223.82l-.69,1.43-.82-1.83c-1.59-3.64-29.57-64.75-29.69-64.91s-45.18,9-45.47,9.15c0,0,11.93,22.14,26.64,49.06Z" transform="translate(-215 -71)"/><path class="cls-2" d="M386.31,414.82l10.25-7.76-4.7-5.11c-2.57-2.81-4.82-5.18-5-5.26s-4.82,3.83-10.29,8.7-10.09,8.78-10.22,8.78a70.25,70.25,0,0,1-.45-8.38c-.08-4.57-.24-8.41-.36-8.49s-14.38.53-14.63.73,3.8,46.65,4.33,50.37l.25,1.79,5.76-.28c3.14-.17,5.76-.33,5.8-.37s-.12-4.45-.25-9.84a90,90,0,0,1,0-10.09c.13-.21,3.07,3.35,6.5,7.84s6.41,8.17,6.66,8.17,10.86-5.56,11.47-6.13c.17-.16-3.47-3.84-8.13-8.17-6.78-6.37-8.33-8-7.84-8.33Z" transform="translate(-215 -71)"/><path class="cls-2" d="M391.86,360.82c0-.45-11.44-46-25.32-101.34-23.16-92.35-25.33-100.6-26.06-100.56S282.15,169.5,282,169.66s-38.77,189.61-38.56,189.81c.36.41,56.49,2.5,56.81,2.13.17-.17,1.88-17.61,3.84-38.72s3.64-39.13,3.76-40.07l.25-1.68,10-.49c5.52-.24,10.09-.41,10.13-.37s4.09,21.08,8.95,46.69,9,46.93,9.15,47.42c.28.82,1.06.62,22.95-6C389,362.46,391.94,361.48,391.86,360.82Z" transform="translate(-215 -71)"/><path class="cls-2" d="M1070.17,254c.29-.32-.2-.88-4.17-4.26V252C1068.65,253.75,1069.85,254.3,1070.17,254Z" transform="translate(-215 -71)"/><path class="cls-2" d="M1070.78,224.56c4.33,2,5.72,2,3.68,0a64.6,64.6,0,0,0-8.46-5.45v3.4C1067.54,223.14,1069,223.78,1070.78,224.56Z" transform="translate(-215 -71)"/><path class="cls-2" d="M1068.13,209.37c4.94,2.49,5.64,1.88,1.47-1.27-1.09-.8-2.3-1.64-3.6-2.48v2.72C1066.69,208.66,1067.4,209,1068.13,209.37Z" transform="translate(-215 -71)"/><path class="cls-2" d="M1068,187.6c.49-.5.16-1-2-2.11v2C1067.21,187.83,1067.72,187.84,1068,187.6Z" transform="translate(-215 -71)"/><path class="cls-2" d="M890.47,138.66c-.57,4.57-.57,15.52,0,24.34.25,3.68.61,10.38.86,14.87,0,.44.05.87.07,1.3V131.65C891,134.55,890.64,137.28,890.47,138.66Z" transform="translate(-215 -71)"/><path class="cls-2" d="M1067.6,234a64.1,64.1,0,0,1,7.11,3.31c2.73,1.47,3.39,1.67,3.26,1.1-.18-1.12-3.71-3.35-12-7.49v2.46C1066.59,233.61,1067.14,233.81,1067.6,234Z" transform="translate(-215 -71)"/><path class="cls-2" d="M434.59,391.29l-3.35.09c-9.85.24-12.13.36-12.13.65s.65,5.15,1.38,11.11,1.35,10.9,1.27,11.07A51.44,51.44,0,0,1,414,416c-.24,0-.73-4.13-1.23-10L412,396l-2.45.08c-1.35,0-4.78.21-7.64.33-5,.25-5.23.29-5.23,1.14,0,1.11,6.86,49.26,7.11,49.92.12.32,2,.08,6-.86,3.15-.73,5.84-1.43,6-1.55s-.49-10.95-.94-14.38l-.25-1.67,4.33-.94a24.26,24.26,0,0,1,4.54-.78c.12.12.85,5.23,1.63,11.36s1.47,11.19,1.55,11.23,11.81-2.62,12-2.78-3.43-51.42-3.8-54.12Z" transform="translate(-215 -71)"/><path class="cls-2" d="M662.1,424.22c-.57.16-.69-1-.94-10.13-.12-5.68-.37-14.79-.53-20.26l-.24-9.89-1.07,0c-.57,0-4.16.25-8,.41s-7,.41-7.07.49,4.62,51.75,4.86,52,11.48-.21,25.29-.86l6-.25.29-6.74c.12-3.71.16-6.86.08-7S663.49,423.85,662.1,424.22Z" transform="translate(-215 -71)"/><path class="cls-2" d="M768.3,401.79l-1.76-25.2-4.53.08c-2.45,0-6,.16-7.88.2l-3.39.17.2,1.1c.49,2.45,2.7,21,2.53,21.24a41.5,41.5,0,0,1-4.08,1.1l-3.88.9-.25-1.67c-.12-.9-.49-5.43-.85-10s-.7-8.41-.74-8.46-15.07.7-15.28.86,1.47,11.6,3.44,25.53c3.14,22,3.71,25.37,4.28,25.37.41,0,3.11-.58,6-1.27l5.35-1.27,0-2.08c0-1.18-.25-4.78-.53-8s-.49-6-.49-6,2-.53,4.41-1.1l4.41-1,.21,1.26c.12.7.77,5.76,1.47,11.28s1.34,10.09,1.43,10.17a46.47,46.47,0,0,0,6.12-1.19l6-1.39-.25-2.65C770.14,428.22,769.28,415.68,768.3,401.79Z" transform="translate(-215 -71)"/><path class="cls-2" d="M722.35,406.28c-8.13-21.24-9.44-24.38-10.17-24.34-.45,0-4.94.82-10,1.76-7.8,1.43-9.19,1.83-9.47,2.49s-11,48.07-11,48.65c0,.08,4.33.16,9.6.16,7.31,0,9.68-.12,9.8-.53.12-.25.57-5,1-10.46s.86-10.05.94-10.09a21.7,21.7,0,0,1,3.51-.24l3.39-.13,3.6,11.85c3.43,11.36,3.63,11.85,4.53,11.72.53,0,4.05-.94,7.8-2l6.82-1.88-.53-1.26C732,431.28,727.5,419.72,722.35,406.28Z" transform="translate(-215 -71)"/><path class="cls-2" d="M841.54,275.54c-5.19-2.62-12.5-4.38-20.42-5l-3.8-.28,3.06-1.68a67.62,67.62,0,0,0,16.18-12.5c9.88-9.84,15.84-20,19.4-32.92,2.33-8.5,2.86-12.7,2.82-23,0-8.86,0-9.31-1.15-12.86-2.65-8.66-7-14-15.07-18.71-8.41-4.9-17.85-7.15-33.58-8.05-3.79-.2-7.39-.37-8-.32s-2.29.12-3.88.2c-5.19.2-17.48,1.39-23.28,2.21-5,.69-19.37,3.47-19.65,3.75,0,0,2.25,44.57,5.06,99l5.19,98.89,6.21.25a157,157,0,0,0,32.8-2.62c12.83-2.57,25.94-7.88,33.66-13.56,9.55-7.06,16.66-16.38,19.85-26,2.16-6.49,3.55-17.19,2.82-21.77A34.09,34.09,0,0,0,841.54,275.54Z" transform="translate(-215 -71)"/><path class="cls-2" d="M469.8,392.56c-5,.86-19.53,3.76-19.69,4-.45.45-11.19,49-10.95,49.3s4.54.09,9.8-.08l9.56-.33.78-10.29.82-10.33,1.22-.17c.7-.12,2.25-.28,3.43-.36,1.92-.17,2.25-.09,2.58.69.16.45,1.83,5.88,3.67,12s3.56,11.15,3.8,11.15c.86,0,14.95-3.88,14.95-4.13s-16.54-43.5-18.83-49.3C470.45,393.5,470,392.52,469.8,392.56Z" transform="translate(-215 -71)"/><path class="cls-2" d="M523.8,428.87c-.41,0-4.7.53-9.52,1.19s-8.91,1.1-9,1-.37-6.46-.53-14.13-.37-16.71-.53-20.06c-.21-5.15-.33-6-.9-6-.37,0-4,.24-8,.45s-7.4.4-7.44.44,4.74,51.92,4.9,52,17.12-.49,26-.94l5.15-.24.28-2.74c.13-1.47.25-4.57.25-6.9C524.49,429.32,524.41,428.87,523.8,428.87Z" transform="translate(-215 -71)"/><path class="cls-2" d="M548,409.31l-9.15,1.43-.29-2.62a9.33,9.33,0,0,1-.08-2.78c.08-.08,4.62-.73,10.09-1.38s10-1.23,10-1.31.61-3.15,1.22-6.86,1.19-7.07,1.27-7.48c.2-.61,0-.69-1.76-.65-3.67.12-34.43,3.06-34.72,3.35s3.68,51.22,4.09,51.59c.2.24,13.23-2.41,13.52-2.74.08-.08-.37-4.13-1-8.95s-1.15-9.27-1.19-9.84V420l8-.74c4.82-.49,8.21-1,8.53-1.26.49-.53,1.27-9.44.86-9.89C557.29,408,553,408.57,548,409.31Z" transform="translate(-215 -71)"/><path class="cls-2" d="M642.45,423.56c-.28,0-4.57.53-9.51,1.19s-9,1.1-9.11,1.06-.33-8.74-.53-19.24-.53-19.57-.62-20.1-.4-.85-.69-.81-3.8.2-7.84.41-7.4.44-7.52.53c-.24.28,4.49,51.42,4.82,51.79s30.51-.78,31.13-1.19c.2-.12.36-3.22.36-6.94C642.94,425.16,642.82,423.56,642.45,423.56Z" transform="translate(-215 -71)"/><path class="cls-2" d="M588.7,387.58c-.25-.25-19.69,3.18-20,3.51-.17.16-11.11,48.81-11.11,49.34,0,.25,19.11,0,19.48-.28,0,0,.41-4.62.86-10.22s.94-10.25,1.06-10.37a36.13,36.13,0,0,1,6.7-.65c.08,0,1.75,5.47,3.71,12.09s3.72,12,3.88,11.92c1.88-.2,15-4.12,15-4.45s-4.33-11.76-9.64-25.57S588.82,387.7,588.7,387.58Z" transform="translate(-215 -71)"/><path class="cls-1" d="M891.36,179.17c0-.43-.05-.86-.07-1.3-.25-4.49-.61-11.19-.86-14.87-.53-8.82-.53-19.77,0-24.34.17-1.38.52-4.11.89-7V115.07c-.77-.88-1.88-1.9-3.42-3.41-2.78-2.7-5.72-5.43-6.54-6-1.79-1.34-2-2.53-.57-3.14a2.62,2.62,0,0,1,3.52,1c.17.48,3.65,4.13,7,7.5V71.06H215V464H891.36V179.17Zm-254.3-2.73.29-9.6L657.2,161c10.91-3.14,20-5.76,20.22-5.8s.24,3.07.08,7.4c-.16,4.12-.45,10.58-.65,14.41-1.52,27-2.17,54.94-1.64,71.89.62,20.26,1.43,29.45,3.68,40.65,3.63,17.89,9,26.14,17.07,26.14a11,11,0,0,0,7.52-3.15c5-5.27,8.66-18.62,10.13-37.49.73-9.11,1-33.87.45-47-.62-15.85-1.6-35-2.09-41.25-.2-2.7-.49-7.89-.65-11.56-.24-5.6-.2-6.62.29-6.62s35,7.39,39,8.37c.82.17.86.45,1.15,13.77.12,7.47.49,18.3.73,24,.29,6,.53,23,.53,40.23,0,32.19-.16,35.82-2.45,51.06-2.32,15.6-4.78,24.51-9.39,33.74-5.19,10.33-11.85,17.6-19.81,21.61-14,7.06-33.25,6.25-47.1-2-6-3.56-13.35-11.44-18.21-19.49-9.73-16.09-15.69-40.68-18.39-75.36C636.33,247.84,636.12,211.41,637.06,176.44ZM508.27,255.28c.53-22.43,4.33-39.26,12.91-57,5.35-11,10.17-18,17.32-25.16,8.09-8,17.52-13.19,26.92-14.62a57,57,0,0,1,16.46.74,48,48,0,0,1,13.19,5.63C615.45,177.67,630,205.2,634.61,240c.86,6.25,1.19,25.53.61,32.68q-2.69,32.52-17,56.73c-4.9,8.33-13.11,17.77-19.6,22.59-12,8.9-26.92,11.44-40.4,6.9-21-7.06-39.34-32.72-46.65-65.39C508.93,281.46,508,270,508.27,255.28ZM401.75,158.51c.12.16,28.1,61.27,29.69,64.91l.82,1.83.69-1.43c.41-.77,7.07-15.76,14.75-33.29s14.17-32,14.38-32.26,39.7-4.5,44-4.66c.94,0,1.3.12,1.14.45S494.84,179.75,480,210.55l-27,56,.28,48.28c.17,27.28.17,48.32,0,48.32s-9.56.45-20.79,1-20.79,1-21.28,1h-.86L410,315.4l-.29-49.71-26.75-49c-14.71-26.92-26.68-49-26.64-49.06C356.57,167.46,401.62,158.39,401.75,158.51ZM346.32,374.38c-.17-.49-4.25-21.81-9.15-47.42s-8.87-46.6-8.95-46.69-4.61.13-10.13.37l-10,.49-.25,1.68c-.12.94-1.8,18.95-3.76,40.07s-3.67,38.55-3.84,38.72c-.32.37-56.45-1.72-56.81-2.13-.21-.2,38.27-189.56,38.56-189.81s57.75-10.7,58.49-10.74,2.9,8.21,26.06,100.56c13.88,55.31,25.28,100.89,25.32,101.34.08.66-2.9,1.64-22.59,7.6C347.38,375,346.6,375.2,346.32,374.38Zm37,56.94c4.66,4.33,8.3,8,8.13,8.17-.61.57-11.07,6.13-11.47,6.13s-3.27-3.68-6.66-8.17-6.37-8.05-6.5-7.84a90,90,0,0,0,0,10.09c.13,5.39.25,9.84.25,9.84s-2.66.2-5.8.37l-5.76.28-.25-1.79c-.53-3.72-4.49-50.16-4.33-50.37s14.38-.94,14.63-.73.28,3.92.36,8.49a70.25,70.25,0,0,0,.45,8.38c.13,0,4.74-4,10.22-8.78s10.13-8.75,10.29-8.7,2.41,2.45,5,5.26l4.7,5.11-10.25,7.76L375.48,423C375,423.32,376.54,425,383.32,431.32Zm55.27,15.81c-.2.16-11.89,2.9-12,2.78s-.78-5.07-1.55-11.23-1.51-11.24-1.63-11.36a24.26,24.26,0,0,0-4.54.78l-4.33.94.25,1.67c.45,3.43,1.14,14.13.94,14.38s-2.86.82-6,1.55c-4,.94-5.84,1.18-6,.86-.25-.66-7.11-48.81-7.11-49.92,0-.85.2-.89,5.23-1.14,2.86-.12,6.29-.29,7.64-.33L412,396l.81,10c.5,5.84,1,10,1.23,10a51.44,51.44,0,0,0,7.76-1.8c.08-.17-.49-5.15-1.27-11.07s-1.38-10.95-1.38-11.11,2.28-.41,12.13-.65l3.35-.09.2,1.72C435.16,395.71,438.71,447,438.59,447.13Zm36.23.94c-.24,0-2-5-3.8-11.15s-3.51-11.52-3.67-12c-.33-.78-.66-.86-2.58-.69-1.18.08-2.73.24-3.43.36l-1.22.17-.82,10.33-.78,10.29-9.56.33c-5.26.17-9.68.21-9.8.08s10.5-48.85,10.95-49.3c.16-.2,14.66-3.1,19.69-4,.16,0,.65.94,1.14,2.08,2.29,5.8,18.83,49.1,18.83,49.3S475.68,448.07,474.82,448.07Zm49.42-8.13-.28,2.74-5.15.24c-8.9.45-25.89,1.07-26,.94s-5-51.91-4.9-52,3.39-.24,7.44-.44,7.59-.41,8-.45c.57,0,.69.81.9,6,.16,3.35.41,12.34.53,20.06s.41,14.05.53,14.13,4.21-.37,9-1,9.11-1.19,9.52-1.19c.61,0,.69.45.69,4.17C524.49,435.37,524.37,438.47,524.24,439.94ZM556.55,418c-.32.28-3.71.77-8.53,1.26l-8,.74v1.06c0,.57.53,5,1.19,9.84s1.1,8.87,1,8.95c-.29.33-13.32,3-13.52,2.74-.41-.37-4.37-51.27-4.09-51.59s31-3.23,34.72-3.35c1.72,0,2,0,1.76.65-.08.41-.7,3.76-1.27,7.48s-1.14,6.78-1.22,6.86-4.58.65-10,1.31-10,1.3-10.09,1.38a9.33,9.33,0,0,0,.08,2.78l.29,2.62,9.15-1.43c5-.74,9.27-1.31,9.39-1.19C557.82,408.57,557,417.48,556.55,418Zm36.72,24.91c-.16,0-1.87-5.35-3.88-11.92s-3.63-12.05-3.71-12.09a36.13,36.13,0,0,0-6.7.65c-.12.12-.57,4.82-1.06,10.37s-.86,10.22-.86,10.22c-.37.24-19.48.53-19.48.28,0-.53,10.94-49.18,11.11-49.34.32-.33,19.76-3.76,20-3.51s4.57,11.52,9.88,25.32,9.64,25.33,9.64,25.57S595.15,442.72,593.27,442.92Zm49.31-5.72c-.62.41-30.8,1.52-31.13,1.19s-5.06-51.51-4.82-51.79c.12-.09,3.47-.33,7.52-.53s7.59-.41,7.84-.41.61.32.69.81.37,9.56.62,20.1.45,19.16.53,19.24,4.16-.41,9.11-1.06,9.23-1.19,9.51-1.19.49,1.6.49,6.7C642.94,434,642.78,437.08,642.58,437.2ZM680.69,429l-.29,6.74-6,.25c-13.81.65-25.12,1-25.29.86s-5-51.76-4.86-52,3.27-.29,7.07-.49,7.39-.37,8-.41l1.07,0,.24,9.89c.16,5.47.41,14.58.53,20.26.25,9.15.37,10.29.94,10.13,1.39-.37,18.46-2.41,18.67-2.21S680.81,425.28,680.69,429Zm45.25,6.13c-3.75,1.06-7.27,2-7.8,2-.9.13-1.1-.36-4.53-11.72L710,413.55l-3.39.13a21.7,21.7,0,0,0-3.51.24c-.08,0-.49,4.62-.94,10.09s-.9,10.21-1,10.46c-.12.41-2.49.53-9.8.53-5.27,0-9.6-.08-9.6-.16,0-.58,10.7-48,11-48.65s1.67-1.06,9.47-2.49c5-.94,9.52-1.76,10-1.76.73,0,2,3.1,10.17,24.34,5.15,13.44,9.6,25,9.88,25.7l.53,1.26Zm38.56-1.35a46.47,46.47,0,0,1-6.12,1.19c-.09-.08-.74-4.66-1.43-10.17s-1.35-10.58-1.47-11.28l-.21-1.26-4.41,1c-2.41.57-4.37,1.06-4.41,1.1s.2,2.7.49,6,.53,6.87.53,8l0,2.08-5.35,1.27c-2.94.69-5.64,1.27-6,1.27-.57,0-1.14-3.35-4.28-25.37-2-13.93-3.52-25.41-3.44-25.53s15.16-1,15.28-.86.37,3.84.74,8.46.73,9.15.85,10l.25,1.67,3.88-.9a41.5,41.5,0,0,0,4.08-1.1c.17-.2-2-18.79-2.53-21.24l-.2-1.1,3.39-.17c1.88,0,5.43-.16,7.88-.2l4.53-.08,1.76,25.2c1,13.89,1.84,26.43,2,27.94l.25,2.65ZM857,322.3c-3.19,9.6-10.3,18.92-19.85,26-7.72,5.68-20.83,11-33.66,13.56a157,157,0,0,1-32.8,2.62l-6.21-.25-5.19-98.89c-2.81-54.4-5.1-98.93-5.06-99,.28-.28,14.7-3.06,19.65-3.75,5.8-.82,18.09-2,23.28-2.21,1.59-.08,3.31-.16,3.88-.2s4.17.12,8,.32c15.73.9,25.17,3.15,33.58,8.05,8.09,4.7,12.42,10.05,15.07,18.71,1.1,3.55,1.15,4,1.15,12.86,0,10.34-.49,14.54-2.82,23-3.56,12.91-9.52,23.08-19.4,32.92a67.62,67.62,0,0,1-16.18,12.5l-3.06,1.68,3.8.28c7.92.61,15.23,2.37,20.42,5a34.09,34.09,0,0,1,18.26,25C860.53,305.11,859.14,315.81,857,322.3Z" transform="translate(-215 -71)"/><rect class="cls-1" x="653" width="24" height="393"/></svg>